<svg width="397" height="357" viewBox="0 0 397 357" fill="none" xmlns="http://www.w3.org/2000/svg">
<path fill-rule="evenodd" clip-rule="evenodd" d="M259.577 0C263.627 0 267.51 1.61196 270.374 4.48126C273.237 7.35057 274.846 11.2422 274.846 15.3V341.7C274.846 345.758 273.237 349.649 270.374 352.519C267.51 355.388 263.627 357 259.577 357C255.527 357 251.643 355.388 248.78 352.519C245.916 349.649 244.308 345.758 244.308 341.7V15.3C244.308 11.2422 245.916 7.35057 248.78 4.48126C251.643 1.61196 255.527 0 259.577 0ZM198.5 61.2C202.55 61.2 206.433 62.812 209.297 65.6813C212.161 68.5506 213.769 72.4422 213.769 76.5V280.5C213.769 284.558 212.161 288.449 209.297 291.319C206.433 294.188 202.55 295.8 198.5 295.8C194.45 295.8 190.567 294.188 187.703 291.319C184.839 288.449 183.231 284.558 183.231 280.5V76.5C183.231 72.4422 184.839 68.5506 187.703 65.6813C190.567 62.812 194.45 61.2 198.5 61.2ZM76.3462 81.6C80.3958 81.6 84.2796 83.212 87.1431 86.0813C90.0067 88.9506 91.6154 92.8422 91.6154 96.9V260.1C91.6154 264.158 90.0067 268.049 87.1431 270.919C84.2796 273.788 80.3958 275.4 76.3462 275.4C72.2965 275.4 68.4127 273.788 65.5492 270.919C62.6856 268.049 61.0769 264.158 61.0769 260.1V96.9C61.0769 92.8422 62.6856 88.9506 65.5492 86.0813C68.4127 83.212 72.2965 81.6 76.3462 81.6ZM320.654 102C324.703 102 328.587 103.612 331.451 106.481C334.314 109.351 335.923 113.242 335.923 117.3V239.7C335.923 243.758 334.314 247.649 331.451 250.519C328.587 253.388 324.703 255 320.654 255C316.604 255 312.72 253.388 309.857 250.519C306.993 247.649 305.385 243.758 305.385 239.7V117.3C305.385 113.242 306.993 109.351 309.857 106.481C312.72 103.612 316.604 102 320.654 102ZM137.423 122.4C141.473 122.4 145.357 124.012 148.22 126.881C151.084 129.751 152.692 133.642 152.692 137.7V219.3C152.692 223.358 151.084 227.249 148.22 230.119C145.357 232.988 141.473 234.6 137.423 234.6C133.373 234.6 129.49 232.988 126.626 230.119C123.763 227.249 122.154 223.358 122.154 219.3V137.7C122.154 133.642 123.763 129.751 126.626 126.881C129.49 124.012 133.373 122.4 137.423 122.4ZM15.2692 142.8C19.3189 142.8 23.2027 144.412 26.0662 147.281C28.9297 150.151 30.5385 154.042 30.5385 158.1V198.9C30.5385 202.958 28.9297 206.849 26.0662 209.719C23.2027 212.588 19.3189 214.2 15.2692 214.2C11.2196 214.2 7.33579 212.588 4.47225 209.719C1.60872 206.849 0 202.958 0 198.9V158.1C0 154.042 1.60872 150.151 4.47225 147.281C7.33579 144.412 11.2196 142.8 15.2692 142.8ZM381.731 142.8C385.78 142.8 389.664 144.412 392.528 147.281C395.391 150.151 397 154.042 397 158.1V198.9C397 202.958 395.391 206.849 392.528 209.719C389.664 212.588 385.78 214.2 381.731 214.2C377.681 214.2 373.797 212.588 370.934 209.719C368.07 206.849 366.462 202.958 366.462 198.9V158.1C366.462 154.042 368.07 150.151 370.934 147.281C373.797 144.412 377.681 142.8 381.731 142.8Z" fill="#181818"/>
</svg>
