<svg width="15" height="15" viewBox="0 0 15 15" fill="none" xmlns="http://www.w3.org/2000/svg">
<path d="M14.5957 6.52427C14.5952 6.52395 14.5949 6.52348 14.5945 6.52313L8.47574 0.40459C8.21491 0.143613 7.86815 0 7.49933 0C7.13049 0 6.78373 0.143613 6.52281 0.404561L0.407176 6.52002C0.405126 6.52207 0.402958 6.52424 0.401024 6.52632C-0.134581 7.06497 -0.133644 7.93895 0.403661 8.47626C0.64911 8.72186 0.973192 8.864 1.31986 8.87897C1.33404 8.88035 1.34825 8.88103 1.36255 8.88103H1.6063V13.3838C1.6063 14.275 2.3314 15 3.22255 15H5.61642C5.85915 15 6.05588 14.8031 6.05588 14.5605V11.0303C6.05588 10.6237 6.38673 10.2929 6.79334 10.2929H8.2053C8.61194 10.2929 8.94265 10.6237 8.94265 11.0303V14.5605C8.94265 14.8032 9.13937 15 9.3821 15H11.776C12.6672 15 13.3922 14.275 13.3922 13.3839V8.88105H13.6184C13.9871 8.88105 14.3339 8.73741 14.5949 8.47638C15.1328 7.93828 15.133 7.06269 14.5957 6.52424L14.5957 6.52427ZM13.9734 7.85499C13.9269 7.90177 13.8715 7.93887 13.8106 7.96413C13.7497 7.9894 13.6843 8.00233 13.6184 8.00218H12.9527C12.71 8.00218 12.5133 8.19888 12.5133 8.44163V13.3839C12.5133 13.7904 12.1826 14.1211 11.7759 14.1211H9.82155V11.0303C9.82155 10.1391 9.09654 9.41402 8.20527 9.41402H6.79337C5.9021 9.41402 5.177 10.1391 5.177 11.0303V14.1211H3.22261C2.81608 14.1211 2.48523 13.7903 2.48523 13.3839V8.4416C2.48523 8.19885 2.2885 8.00215 2.04578 8.00215H1.39161C1.38475 8.00166 1.37789 8.00135 1.37101 8.00121C1.24009 7.99893 1.1173 7.94698 1.02531 7.85484C0.829608 7.65914 0.829608 7.34068 1.02531 7.14486C1.0254 7.14486 1.0254 7.14475 1.02552 7.14463L1.02587 7.14428L7.14443 1.02598C7.19091 0.97919 7.24621 0.942098 7.30714 0.916852C7.36806 0.891606 7.43339 0.878708 7.49933 0.878906C7.63334 0.878906 7.75934 0.931084 7.85421 1.02598L13.9714 7.14305L13.9743 7.1458C14.1689 7.34186 14.1686 7.65967 13.9734 7.85499Z" fill="white"/>
</svg>
