<svg width="23" height="20" viewBox="0 0 23 20" fill="none" xmlns="http://www.w3.org/2000/svg">
<path d="M9.936 8.464H10.904V9H8.296V8.464H9.264V3.928H8.36V3.4H10.84V3.928H9.936V8.464ZM12.6111 8.992H11.9471V3.392C12.1125 3.392 12.3471 3.392 12.6511 3.392C12.9551 3.392 13.2325 3.392 13.4831 3.392C13.7338 3.392 13.9685 3.392 14.1871 3.392C14.7738 3.392 15.2458 3.576 15.6031 3.944C15.9658 4.30667 16.1471 4.76267 16.1471 5.312C16.1471 5.856 15.9658 6.30933 15.6031 6.672C15.2405 7.03467 14.7685 7.216 14.1871 7.216H12.6111V8.992ZM12.6031 6.616H14.1871C14.5605 6.616 14.8725 6.49333 15.1231 6.248C15.3738 5.99733 15.4991 5.68 15.4991 5.296C15.4991 4.91733 15.3765 4.60533 15.1311 4.36C14.8858 4.10933 14.5711 3.984 14.1871 3.984H12.6031V6.616Z" fill="white"/>
<g filter="url(#filter0_d_339_250)">
<rect x="4.35" y="0.35" width="14.3" height="11.3" rx="1.65" stroke="white" stroke-width="0.7" shape-rendering="crispEdges"/>
</g>
<defs>
<filter id="filter0_d_339_250" x="0" y="0" width="23" height="20" filterUnits="userSpaceOnUse" color-interpolation-filters="sRGB">
<feFlood flood-opacity="0" result="BackgroundImageFix"/>
<feColorMatrix in="SourceAlpha" type="matrix" values="0 0 0 0 0 0 0 0 0 0 0 0 0 0 0 0 0 0 127 0" result="hardAlpha"/>
<feOffset dy="4"/>
<feGaussianBlur stdDeviation="2"/>
<feComposite in2="hardAlpha" operator="out"/>
<feColorMatrix type="matrix" values="0 0 0 0 0 0 0 0 0 0 0 0 0 0 0 0 0 0 0.25 0"/>
<feBlend mode="normal" in2="BackgroundImageFix" result="effect1_dropShadow_339_250"/>
<feBlend mode="normal" in="SourceGraphic" in2="effect1_dropShadow_339_250" result="shape"/>
</filter>
</defs>
</svg>
