<svg width="682" height="682" viewBox="0 0 682 682" fill="none" xmlns="http://www.w3.org/2000/svg">
<g clip-path="url(#clip0_342_252)">
<path d="M622.188 119.623C655.221 119.623 682 92.8443 682 59.8114C682 26.7785 655.221 0 622.188 0C589.155 0 562.377 26.7785 562.377 59.8114C562.377 92.8443 589.155 119.623 622.188 119.623Z" fill="white"/>
<path d="M622.188 682C655.221 682 682 655.222 682 622.189C682 589.156 655.221 562.377 622.188 562.377C589.155 562.377 562.377 589.156 562.377 622.189C562.377 655.222 589.155 682 622.188 682Z" fill="white"/>
<path d="M307.105 434.707C307.105 467.784 280.302 494.518 247.293 494.518H153.586C141.924 494.518 130.603 493.222 119.691 490.767C62.062 477.809 16.709 432.456 3.751 374.827C1.2958 363.983 0 352.662 0 341V59.8114C0 26.8026 26.8026 0 59.8114 0C92.8202 0 119.623 26.8026 119.623 59.8114V315.016C119.623 348.093 146.425 374.827 179.434 374.827H247.225C267.071 374.827 284.667 384.512 295.511 399.379C302.876 409.336 307.105 421.544 307.105 434.707Z" fill="white"/>
<path d="M682 341C682 352.662 680.705 363.983 678.249 374.895C665.291 432.524 619.938 477.877 562.309 490.835C551.397 493.291 540.076 494.586 528.414 494.586H434.707C401.63 494.586 374.896 467.784 374.896 434.775C374.896 421.612 379.192 409.336 386.422 399.516C397.265 384.648 414.861 374.964 434.707 374.964H528.414C547.101 374.964 562.309 359.823 562.309 341.068C562.309 322.313 547.169 307.173 528.414 307.173H341C329.338 307.173 318.017 305.877 307.105 303.422C305.468 303.081 303.763 302.672 302.126 302.194C248.521 288.213 206.305 246.066 192.393 192.46C191.983 190.824 191.574 189.187 191.165 187.482C188.71 176.57 187.414 165.249 187.414 153.586C187.414 141.924 188.71 130.603 191.165 119.691C204.123 62.062 249.476 16.709 307.105 3.751C318.017 1.2958 329.338 0 341 0H434.707C467.784 0 494.519 26.8026 494.519 59.8114C494.519 72.974 490.222 85.25 482.993 95.0708C472.149 109.938 454.553 119.623 434.707 119.623H341C322.314 119.623 307.105 134.763 307.105 153.518C307.105 172.273 322.245 187.414 341 187.414H528.414C540.076 187.414 551.397 188.709 562.309 191.165C619.938 204.123 665.291 249.476 678.249 307.105C680.705 318.017 682 329.338 682 341Z" fill="white"/>
<path d="M494.859 621.984C494.859 655.061 468.056 681.795 435.048 681.795H60.1522C27.0752 681.795 0.34082 654.993 0.34082 621.984C0.34082 588.975 27.1434 562.172 60.1522 562.172H435.048C468.056 562.104 494.859 588.907 494.859 621.984Z" fill="white"/>
<path d="M114.986 588.157H121.328V656.289H103.596V624.917L89.1378 640.057H87.0918L72.6334 624.917V656.289H54.9014V588.157H61.244L88.2512 617.551L114.986 588.157Z" fill="#1F1F1F"/>
<path d="M197.644 603.775H173.024V613.459H195.734V629.009H173.024V640.057H198.531V656.289H155.224V588.362H197.644V603.775V603.775Z" fill="#1F1F1F"/>
<path d="M256.159 588.43C278.256 588.43 289.645 605.343 289.645 621.984C289.918 639.034 278.665 656.221 256.159 656.221H230.243V588.362H256.159V588.43ZM256.023 640.262C266.798 640.262 271.913 631.259 271.913 622.189C271.913 613.255 266.457 604.32 256.023 604.32H248.043V640.262H256.023Z" fill="#1F1F1F"/>
<path d="M351.435 641.898V656.289H316.38V641.898H325.041V602.683H317.13V588.293H350.616V602.683H342.773V641.898H351.435Z" fill="#1F1F1F"/>
<path d="M396.72 647.832L392.833 656.289H374.282V653.834L405.45 587.611H413.634L444.528 653.834V656.289H426.182L422.227 647.832H396.72ZM402.449 632.964H416.498L409.405 616.528L402.449 632.964Z" fill="#1F1F1F"/>
</g>
<defs>
<clipPath id="clip0_342_252">
<rect width="682" height="682" fill="white"/>
</clipPath>
</defs>
</svg>
