<svg width="28" height="28" viewBox="0 0 28 28" fill="none" xmlns="http://www.w3.org/2000/svg">
<circle cx="14" cy="14" r="14" fill="#F93492"/>
<path d="M12.0278 8.80545H10.022C9.57894 8.80545 9.21973 9.16326 9.21973 9.60463V18.3956C9.21973 18.837 9.57894 19.1948 10.022 19.1948H12.0278C12.4709 19.1948 12.8302 18.837 12.8302 18.3956V9.60463C12.8302 9.16326 12.4709 8.80545 12.0278 8.80545Z" fill="white"/>
<path d="M17.978 8.80557H15.9722C15.5291 8.80557 15.1699 9.16338 15.1699 9.60476V18.3958C15.1699 18.8371 15.5291 19.1949 15.9722 19.1949H17.978C18.4211 19.1949 18.7803 18.8371 18.7803 18.3958V9.60476C18.7803 9.16338 18.4211 8.80557 17.978 8.80557Z" fill="white"/>
</svg>
