<svg width="12" height="11" viewBox="0 0 12 11" fill="none" xmlns="http://www.w3.org/2000/svg">
<path d="M7.15426 1.83128L0.94022 7.86677C0.908928 7.89724 0.886627 7.9353 0.875643 7.97699L0.186853 10.6619C0.176722 10.7018 0.177343 10.7435 0.188655 10.783C0.199967 10.8226 0.221588 10.8586 0.25143 10.8877C0.297266 10.932 0.359326 10.957 0.42404 10.957C0.444003 10.957 0.46389 10.9546 0.483251 10.9499L3.24783 10.2809C3.29082 10.2704 3.33006 10.2487 3.36135 10.2182L9.57596 4.18318L7.15426 1.83128ZM11.1154 1.00835L10.4237 0.336578C9.9614 -0.112415 9.15564 -0.11197 8.69385 0.336578L7.84653 1.15951L10.2681 3.51131L11.1154 2.6884C11.3464 2.46422 11.4736 2.1658 11.4736 1.84843C11.4736 1.53107 11.3464 1.23265 11.1154 1.00835Z" fill="white"/>
</svg>
