<svg width="20" height="20" viewBox="0 0 20 20" fill="none" xmlns="http://www.w3.org/2000/svg">
<g clip-path="url(#clip0_367_267)">
<path fill-rule="evenodd" clip-rule="evenodd" d="M10.964 5.40362C10.8624 5.35284 10.7494 5.32887 10.6359 5.33399C10.5224 5.33912 10.4121 5.37317 10.3155 5.43292C10.2188 5.49266 10.1391 5.57612 10.0837 5.67536C10.0284 5.7746 9.99936 5.88634 9.99935 5.99996V10.558C9.54256 10.3413 9.02776 10.2788 8.53241 10.38C8.03707 10.4812 7.58799 10.7405 7.25275 11.1189C6.91751 11.4974 6.71426 11.9745 6.67358 12.4784C6.6329 12.9823 6.757 13.4858 7.0272 13.9132C7.29739 14.3405 7.69906 14.6685 8.17177 14.8478C8.64447 15.0271 9.16263 15.048 9.64825 14.9074C10.1339 14.7668 10.5607 14.4723 10.8645 14.0682C11.1683 13.6641 11.3326 13.1722 11.3327 12.6666V7.07862L12.368 7.59629C12.526 7.6737 12.7081 7.68553 12.8748 7.62922C13.0414 7.5729 13.1791 7.453 13.2577 7.29564C13.3364 7.13829 13.3496 6.95623 13.2946 6.78914C13.2396 6.62205 13.1208 6.48348 12.964 6.40362L10.964 5.40362ZM8.99935 11.6666C9.26457 11.6666 9.51892 11.772 9.70646 11.9595C9.89399 12.1471 9.99935 12.4014 9.99935 12.6666C9.99935 12.9318 9.89399 13.1862 9.70646 13.3737C9.51892 13.5613 9.26457 13.6666 8.99935 13.6666C8.73413 13.6666 8.47978 13.5613 8.29224 13.3737C8.10471 13.1862 7.99935 12.9318 7.99935 12.6666C7.99935 12.4014 8.10471 12.1471 8.29224 11.9595C8.47978 11.772 8.73413 11.6666 8.99935 11.6666Z" fill="white"/>
<path fill-rule="evenodd" clip-rule="evenodd" d="M10 0C4.477 0 0 4.477 0 10C0 15.523 4.477 20 10 20C15.523 20 20 15.523 20 10C20 4.477 15.523 0 10 0ZM1.33333 10C1.33333 5.21333 5.21333 1.33333 10 1.33333C14.7867 1.33333 18.6667 5.21333 18.6667 10C18.6667 14.7867 14.7867 18.6667 10 18.6667C5.21333 18.6667 1.33333 14.7867 1.33333 10Z" fill="white"/>
</g>
<defs>
<clipPath id="clip0_367_267">
<rect width="20" height="20" fill="white"/>
</clipPath>
</defs>
</svg>
