<svg width="19" height="19" viewBox="0 0 19 19" fill="none" xmlns="http://www.w3.org/2000/svg">
<path fill-rule="evenodd" clip-rule="evenodd" d="M10.4161 5.13345C10.3196 5.0852 10.2123 5.06243 10.1044 5.0673C9.9966 5.07217 9.89181 5.10452 9.79999 5.16127C9.70818 5.21803 9.63239 5.29731 9.57983 5.39159C9.52727 5.48587 9.49968 5.59202 9.49968 5.69996V10.0301C9.06573 9.82422 8.57666 9.7649 8.10609 9.86101C7.63551 9.95712 7.20888 10.2035 6.89041 10.563C6.57193 10.9225 6.37884 11.3757 6.3402 11.8545C6.30155 12.3332 6.41944 12.8116 6.67613 13.2175C6.93281 13.6235 7.3144 13.935 7.76347 14.1054C8.21254 14.2757 8.70479 14.2956 9.16613 14.1621C9.62748 14.0285 10.033 13.7487 10.3216 13.3648C10.6102 12.9809 10.7662 12.5136 10.7663 12.0333V6.7247L11.7499 7.21648C11.9 7.29001 12.073 7.30126 12.2313 7.24776C12.3897 7.19426 12.5204 7.08035 12.5951 6.93086C12.6698 6.78138 12.6824 6.60842 12.6302 6.44969C12.5779 6.29095 12.465 6.15931 12.3161 6.08345L10.4161 5.13345ZM8.54968 11.0833C8.80163 11.0833 9.04327 11.1834 9.22143 11.3615C9.39959 11.5397 9.49968 11.7813 9.49968 12.0333C9.49968 12.2853 9.39959 12.5269 9.22143 12.705C9.04327 12.8832 8.80163 12.9833 8.54968 12.9833C8.29772 12.9833 8.05608 12.8832 7.87793 12.705C7.69977 12.5269 7.59968 12.2853 7.59968 12.0333C7.59968 11.7813 7.69977 11.5397 7.87793 11.3615C8.05608 11.1834 8.29772 11.0833 8.54968 11.0833Z" fill="white"/>
<path fill-rule="evenodd" clip-rule="evenodd" d="M9.5 0C4.25315 0 0 4.25315 0 9.5C0 14.7468 4.25315 19 9.5 19C14.7468 19 19 14.7468 19 9.5C19 4.25315 14.7468 0 9.5 0ZM1.26667 9.5C1.26667 4.95267 4.95267 1.26667 9.5 1.26667C14.0473 1.26667 17.7333 4.95267 17.7333 9.5C17.7333 14.0473 14.0473 17.7333 9.5 17.7333C4.95267 17.7333 1.26667 14.0473 1.26667 9.5Z" fill="white"/>
</svg>
