<svg width="20" height="20" viewBox="0 0 20 20" fill="none" xmlns="http://www.w3.org/2000/svg">
<g clip-path="url(#clip0_367_299)">
<g clip-path="url(#clip1_367_299)">
<path fill-rule="evenodd" clip-rule="evenodd" d="M9.99999 14.152C9.00599 14.152 8.19925 14.9587 8.19925 15.9527C8.19925 16.9467 9.00599 17.7535 9.99999 17.7535C10.994 17.7535 11.8007 16.9467 11.8007 15.9527C11.8007 14.9587 10.994 14.152 9.99999 14.152ZM9.99999 15.0523C10.497 15.0523 10.9003 15.4557 10.9003 15.9527C10.9003 16.4497 10.497 16.853 9.99999 16.853C9.50299 16.853 9.09964 16.4497 9.09964 15.9527C9.09964 15.4557 9.50299 15.0523 9.99999 15.0523ZM6.49849 12.4512C8.43112 10.5185 11.5689 10.5185 13.5015 12.4512C13.6771 12.6267 13.9625 12.6267 14.1381 12.4512C14.3141 12.2756 14.3141 11.9902 14.1381 11.8146C11.8543 9.53037 8.14573 9.53037 5.86196 11.8146C5.68593 11.9902 5.68593 12.2756 5.86196 12.4512C6.03749 12.6267 6.32292 12.6267 6.49849 12.4512ZM3.63352 9.73948C7.14718 6.22583 12.8528 6.22583 16.3665 9.73948C16.542 9.91505 16.8275 9.76182 17.003 9.58625C17.1791 9.41068 17.1791 9.12525 17.003 8.94968C13.1382 5.08442 6.86179 5.08442 2.997 8.94968C2.82096 9.12525 2.82096 9.41068 2.997 9.58625C3.17257 9.76182 3.45795 9.91505 3.63352 9.73948ZM1 6.87671C6.09514 1.78157 14.3677 1.78157 19.4628 6.87671C19.6384 7.05228 19.6924 6.89685 19.868 6.72128C20.044 6.54571 20.044 6.26028 19.868 6.08471C14.4217 0.63843 5.57835 0.63843 0.132026 6.08471C-0.0440088 6.26028 -0.0440088 6.54571 0.132026 6.72128C0.307597 6.89685 0.824429 7.05228 1 6.87671Z" fill="white"/>
</g>
</g>
<defs>
<clipPath id="clip0_367_299">
<rect width="20" height="20" fill="white"/>
</clipPath>
<clipPath id="clip1_367_299">
<rect width="20" height="20" fill="white"/>
</clipPath>
</defs>
</svg>
