<svg width="20" height="20" viewBox="0 0 20 20" fill="none" xmlns="http://www.w3.org/2000/svg">
<path d="M11.5734 3.02869C10.4869 3.02869 9.40344 3.02259 8.31695 3.03479C8.14862 3.03784 7.96805 3.10795 7.81196 3.18722C7.03458 3.65365 6.41635 4.2908 6.4745 5.28464C6.52653 7.04977 6.49287 8.81795 6.48675 10.5861C6.48369 10.9794 6.63059 11.2751 6.92134 11.5373C8.9413 13.2963 10.3247 14.5096 10.5664 17.3387C10.8756 18.6649 12.6874 17.7533 12.7578 16.726C13.2842 14.4822 11.506 12.4092 12.4915 12.5006C13.6913 12.461 14.891 12.4183 16.0907 12.3787C16.9783 12.3512 17.6975 11.5861 17.673 10.5861C17.5292 8.65027 17.1252 6.72967 16.9293 4.79687C16.5039 2.29703 13.3791 3.19026 11.5734 3.02869ZM2.53865 3.1232H5.18296C5.47983 3.1232 5.72161 3.36403 5.72161 3.65975V11.1074C5.72161 11.4031 5.47983 11.644 5.18296 11.644H2.53865C2.24178 11.644 2 11.4031 2 11.1074V3.65975C2 3.36403 2.24178 3.1232 2.53865 3.1232Z" fill="#747474"/>
</svg>
