<svg width="16" height="15" viewBox="0 0 16 15" fill="none" xmlns="http://www.w3.org/2000/svg">
<path d="M9.57336 0.0286897C8.48687 0.0286897 7.40344 0.0225925 6.31695 0.0347868C6.14862 0.0378354 5.96805 0.107953 5.81196 0.187216C5.03458 0.653649 4.41635 1.2908 4.4745 2.28464C4.52653 4.04977 4.49287 5.81795 4.48675 7.58612C4.48369 7.97939 4.63059 8.2751 4.92134 8.53728C6.9413 10.2963 8.32466 11.5096 8.56644 14.3387C8.87556 15.6649 10.6874 14.7533 10.7578 13.726C11.2842 11.4822 9.50603 9.40918 10.4915 9.50063C11.6913 9.461 12.891 9.41832 14.0907 9.37869C14.9783 9.35125 15.6975 8.58606 15.673 7.58612C15.5292 5.65027 15.1252 3.72967 14.9293 1.79687C14.5039 -0.70297 11.3791 0.190264 9.57336 0.0286897ZM0.538655 0.123196H3.18296C3.47983 0.123196 3.72161 0.364034 3.72161 0.659746V8.10743C3.72161 8.40314 3.47983 8.64398 3.18296 8.64398H0.538655C0.241782 8.64398 0 8.40314 0 8.10743V0.659746C0 0.364034 0.241782 0.123196 0.538655 0.123196Z" fill="#747474"/>
</svg>
