<svg width="26" height="26" viewBox="0 0 26 26" fill="none" xmlns="http://www.w3.org/2000/svg">
<path d="M14.5734 8.02869C13.4869 8.02869 12.4034 8.02259 11.3169 8.03479C11.1486 8.03784 10.968 8.10795 10.812 8.18722C10.0346 8.65365 9.41635 9.2908 9.4745 10.2846C9.52653 12.0498 9.49287 13.8179 9.48675 15.5861C9.48369 15.9794 9.63059 16.2751 9.92134 16.5373C11.9413 18.2963 13.3247 19.5096 13.5664 22.3387C13.8756 23.6649 15.6874 22.7533 15.7578 21.726C16.2842 19.4822 14.506 17.4092 15.4915 17.5006C16.6913 17.461 17.891 17.4183 19.0907 17.3787C19.9783 17.3513 20.6975 16.5861 20.673 15.5861C20.5292 13.6503 20.1252 11.7297 19.9293 9.79687C19.5039 7.29703 16.3791 8.19026 14.5734 8.02869ZM5.53865 8.1232H8.18296C8.47983 8.1232 8.72161 8.36403 8.72161 8.65975V16.1074C8.72161 16.4031 8.47983 16.644 8.18296 16.644H5.53865C5.24178 16.644 5 16.4031 5 16.1074V8.65975C5 8.36403 5.24178 8.1232 5.53865 8.1232Z" fill="white"/>
<path d="M5.2002 20.8L20.8002 5.19999" stroke="white" stroke-width="2" stroke-linecap="round"/>
<circle cx="13" cy="13" r="12" stroke="white" stroke-width="2"/>
</svg>
