<svg width="20" height="20" viewBox="0 0 20 20" fill="none" xmlns="http://www.w3.org/2000/svg">
<path fill-rule="evenodd" clip-rule="evenodd" d="M3.24813 17.1386C3.06543 17.3457 3.08518 17.6617 3.29224 17.8444C3.4993 18.0271 3.81527 18.0073 3.99797 17.8003L8.4539 12.7502C8.22613 12.5222 7.98297 12.2955 7.72582 12.0639L3.24813 17.1386ZM15.6663 3.06467C15.9914 3.18828 16.2741 3.37198 16.4909 3.64165L18.971 0.830817C19.1537 0.623755 19.134 0.307789 18.9269 0.125087C18.7198 -0.0576147 18.4039 -0.0378667 18.2212 0.169195L15.6663 3.06467Z" fill="white"/>
<path fill-rule="evenodd" clip-rule="evenodd" d="M8.45318 12.7502C9.61604 13.9142 10.3776 15.1106 10.551 17.1396C10.8596 18.4633 12.6682 17.5534 12.7385 16.5279C13.0194 15.3302 12.6426 14.1812 12.3816 13.3853C12.1545 12.6929 12.015 12.2677 12.4727 12.3102C13.0715 12.2904 13.6702 12.2698 14.269 12.2493C14.8678 12.2288 15.4666 12.2082 16.0654 12.1884C16.9513 12.161 17.6693 11.3972 17.6448 10.3991C17.5651 9.32555 17.4052 8.25671 17.2452 7.18786C17.1173 6.33279 16.9894 5.47771 16.9025 4.62024C16.8324 4.20846 16.6889 3.88891 16.4901 3.64164L8.45318 12.7502ZM15.6656 3.06468C14.9046 2.7753 13.9109 2.81524 12.9845 2.85246C12.4706 2.87311 11.9774 2.89293 11.5562 2.85524C11.2849 2.85524 11.0139 2.85486 10.7429 2.85448C9.93049 2.85334 9.1189 2.8522 8.3056 2.86132C8.13757 2.86437 7.95732 2.93436 7.80151 3.01348C7.02554 3.47907 6.40842 4.11508 6.46646 5.10713C6.50576 6.44043 6.49608 7.77546 6.4864 9.11092C6.48328 9.54028 6.48017 9.96968 6.47868 10.3991C6.47563 10.7916 6.62227 11.0868 6.9125 11.3485C7.19643 11.5958 7.46777 11.8323 7.72509 12.0639L15.6656 3.06468ZM5.17724 2.94957H2.53769C2.24135 2.94957 2 3.18998 2 3.48516V10.9195C2 11.2146 2.24135 11.455 2.53769 11.455H5.17724C5.47358 11.455 5.71492 11.2146 5.71492 10.9195V3.48516C5.71492 3.18998 5.47358 2.94957 5.17724 2.94957Z" fill="white"/>
</svg>
