<svg width="20" height="20" viewBox="0 0 20 20" fill="none" xmlns="http://www.w3.org/2000/svg">
<path fill-rule="evenodd" clip-rule="evenodd" d="M9.99954 14.2753C9.00554 14.2753 8.1988 15.082 8.1988 16.076C8.1988 17.07 9.00554 17.8768 9.99954 17.8768C10.9935 17.8768 11.8003 17.07 11.8003 16.076C11.8003 15.082 10.9935 14.2753 9.99954 14.2753ZM9.99954 15.1756C10.4965 15.1756 10.8999 15.579 10.8999 16.076C10.8999 16.573 10.4965 16.9763 9.99954 16.9763C9.50254 16.9763 9.0992 16.573 9.0992 16.076C9.0992 15.579 9.50254 15.1756 9.99954 15.1756ZM6.49805 12.5745C8.43068 10.6418 11.5685 10.6418 13.5011 12.5745C13.6767 12.75 13.9621 12.75 14.1377 12.5745C14.3137 12.3989 14.3137 12.1135 14.1377 11.9379C11.8539 9.65367 8.14529 9.65367 5.86152 11.9379C5.68548 12.1135 5.68548 12.3989 5.86152 12.5745C6.03705 12.75 6.32248 12.75 6.49805 12.5745Z" fill="white"/>
</svg>
