<svg width="20" height="20" viewBox="0 0 20 20" fill="none" xmlns="http://www.w3.org/2000/svg">
<g clip-path="url(#clip0_351_238)">
<path fill-rule="evenodd" clip-rule="evenodd" d="M9.99999 14.2753C9.00599 14.2753 8.19925 15.082 8.19925 16.076C8.19925 17.07 9.00599 17.8767 9.99999 17.8767C10.994 17.8767 11.8007 17.07 11.8007 16.076C11.8007 15.082 10.994 14.2753 9.99999 14.2753ZM9.99999 15.1756C10.497 15.1756 10.9003 15.579 10.9003 16.076C10.9003 16.573 10.497 16.9763 9.99999 16.9763C9.50299 16.9763 9.09964 16.573 9.09964 16.076C9.09964 15.579 9.50299 15.1756 9.99999 15.1756ZM6.49849 12.5745C8.43112 10.6418 11.5689 10.6418 13.5015 12.5745C13.6771 12.75 13.9625 12.75 14.1381 12.5745C14.3141 12.3989 14.3141 12.1135 14.1381 11.9379C11.8543 9.65366 8.14573 9.65366 5.86196 11.9379C5.68593 12.1135 5.68593 12.3989 5.86196 12.5745C6.03749 12.75 6.32292 12.75 6.49849 12.5745ZM3.63352 9.86277C7.14718 6.34912 12.8528 6.34912 16.3665 9.86277C16.542 10.0383 16.8275 9.88511 17.003 9.70954C17.1791 9.53397 17.1791 9.24854 17.003 9.07297C13.1382 5.20771 6.86179 5.20771 2.997 9.07297C2.82096 9.24854 2.82096 9.53397 2.997 9.70954C3.17257 9.88511 3.45795 10.0383 3.63352 9.86277ZM1 7C6.09514 1.90486 14.3677 1.90486 19.4628 7C19.6384 7.17557 19.6924 7.02014 19.868 6.84457C20.044 6.669 20.044 6.38357 19.868 6.208C14.4217 0.761721 5.57835 0.761721 0.132026 6.208C-0.0440088 6.38357 -0.0440088 6.669 0.132026 6.84457C0.307597 7.02014 0.824429 7.17557 1 7Z" fill="#747474"/>
</g>
<defs>
<clipPath id="clip0_351_238">
<rect width="20" height="20" fill="white"/>
</clipPath>
</defs>
</svg>
