<svg width="19" height="19" viewBox="0 0 19 19" fill="none" xmlns="http://www.w3.org/2000/svg">
<path d="M7.5083 4.5H5.50251C5.0594 4.5 4.7002 4.85781 4.7002 5.29918V14.0902C4.7002 14.5316 5.0594 14.8894 5.50251 14.8894H7.5083C7.95141 14.8894 8.31062 14.5316 8.31062 14.0902V5.29918C8.31062 4.85781 7.95141 4.5 7.5083 4.5Z" fill="white"/>
<path d="M13.4585 4.50012H11.4527C11.0096 4.50012 10.6504 4.85793 10.6504 5.2993V14.0903C10.6504 14.5317 11.0096 14.8895 11.4527 14.8895H13.4585C13.9016 14.8895 14.2608 14.5317 14.2608 14.0903V5.2993C14.2608 4.85793 13.9016 4.50012 13.4585 4.50012Z" fill="white"/>
<circle cx="9.5" cy="9.5" r="9" stroke="white"/>
</svg>
