<svg width="17" height="19" viewBox="0 0 17 19" fill="none" xmlns="http://www.w3.org/2000/svg">
<path d="M15.0385 0C14.6774 0 14.3847 0.303806 14.3847 0.678583V3.15738C11.0184 -0.224882 5.64754 -0.134627 2.3885 3.35888C0.852597 5.00531 -0.0042437 7.20835 1.58052e-05 9.49996C1.58052e-05 9.87474 0.292753 10.1785 0.653877 10.1785C1.015 10.1785 1.3077 9.87474 1.3077 9.49996C1.3085 5.37757 4.52923 2.03634 8.50147 2.03718C9.49923 2.03738 10.486 2.25303 11.3991 2.67041C12.3123 3.08779 13.1317 3.69778 13.8054 4.46158L10.9088 5.46381C10.5658 5.58225 10.3802 5.96685 10.4943 6.32286C10.6084 6.67887 10.979 6.87151 11.3221 6.75307L15.2452 5.39594C15.3757 5.3508 15.4892 5.26406 15.5695 5.14808C15.6498 5.0321 15.6928 4.89278 15.6924 4.74996V0.678543C15.6924 0.303806 15.3996 0 15.0385 0ZM16.3462 8.82142C15.9851 8.82142 15.6923 9.12522 15.6923 9.5C15.6915 13.6224 12.4708 16.9636 8.49856 16.9628C7.50081 16.9626 6.51401 16.7469 5.60089 16.3295C4.68778 15.9122 3.86834 15.3022 3.19465 14.5384L6.09119 13.5361C6.43423 13.4177 6.61985 13.0331 6.50572 12.6771C6.39159 12.3211 6.021 12.1284 5.67796 12.2469L1.75487 13.604C1.62431 13.6492 1.5108 13.7359 1.4305 13.8519C1.35019 13.9679 1.3072 14.1072 1.30762 14.25V18.3214C1.30762 18.6962 1.60036 19 1.96148 19C2.32261 19 2.61535 18.6962 2.61535 18.3214V15.8426C5.98162 19.2248 11.3525 19.1346 14.6115 15.6411C16.1474 13.9946 17.0042 11.7916 17 9.5C17.0001 9.12522 16.7073 8.82142 16.3462 8.82142Z" fill="#747474"/>
</svg>
