<svg width="20" height="20" viewBox="0 0 20 20" fill="none" xmlns="http://www.w3.org/2000/svg">
<g clip-path="url(#clip0_367_304)">
<path d="M16.9231 0C16.5408 0 16.2308 0.319795 16.2308 0.714298V3.32355C12.6665 -0.236718 6.97975 -0.141713 3.529 3.53566C1.90275 5.26875 0.995507 7.58774 1.00002 9.99996C1.00002 10.3945 1.30997 10.7143 1.69234 10.7143C2.07471 10.7143 2.38462 10.3945 2.38462 9.99996C2.38548 5.6606 5.79566 2.14352 10.0016 2.1444C11.058 2.14462 12.1029 2.37161 13.0697 2.81096C14.0365 3.25031 14.9042 3.89239 15.6175 4.6964L12.5505 5.75138C12.1873 5.87606 11.9908 6.2809 12.1116 6.65565C12.2325 7.03039 12.6249 7.23317 12.9881 7.10849L17.1419 5.67994C17.2802 5.63242 17.4004 5.54112 17.4854 5.41903C17.5704 5.29694 17.616 5.15029 17.6155 4.99996V0.714256C17.6155 0.319795 17.3055 0 16.9231 0ZM18.3077 9.2857C17.9254 9.2857 17.6154 9.6055 17.6154 10C17.6146 14.3394 14.2044 17.8564 9.99848 17.8556C8.94203 17.8553 7.89718 17.6283 6.93036 17.189C5.96353 16.7496 5.09589 16.1076 4.38257 15.3036L7.44949 14.2486C7.81271 14.1239 8.00925 13.7191 7.88841 13.3443C7.76756 12.9696 7.37518 12.7668 7.01196 12.8915L2.8581 14.32C2.71986 14.3675 2.59967 14.4588 2.51464 14.5809C2.42962 14.703 2.38409 14.8497 2.38454 15V19.2857C2.38454 19.6802 2.6945 20 3.07687 20C3.45923 20 3.76919 19.6802 3.76919 19.2857V16.6764C7.33348 20.2367 13.0203 20.1417 16.471 16.4643C18.0972 14.7312 19.0045 12.4122 19 10C19.0001 9.6055 18.6901 9.2857 18.3077 9.2857Z" fill="#747474"/>
</g>
<defs>
<clipPath id="clip0_367_304">
<rect width="20" height="20" fill="white"/>
</clipPath>
</defs>
</svg>
