<svg width="16" height="16" viewBox="0 0 16 16" fill="none" xmlns="http://www.w3.org/2000/svg">
<path d="M9.73645 0.52869C8.64995 0.52869 7.56652 0.522593 6.48003 0.534787C6.3117 0.537835 6.13113 0.607953 5.97505 0.687216C5.19767 1.15365 4.57944 1.7908 4.63759 2.78464C4.68962 4.54977 4.65595 6.31795 4.64983 8.08612C4.64677 8.47939 4.79368 8.7751 5.08443 9.03728C7.10438 10.7963 8.48775 12.0096 8.72953 14.8387C9.03864 16.1649 10.8505 15.2533 10.9209 14.226C11.4473 11.9822 9.66911 9.90918 10.6546 10.0006C11.8543 9.961 13.0541 9.91832 14.2538 9.87869C15.1414 9.85125 15.8606 9.08606 15.8361 8.08612C15.6923 6.15027 15.2883 4.22967 15.0924 2.29687C14.667 -0.20297 11.5422 0.690264 9.73645 0.52869ZM0.70174 0.623196H3.34604C3.64292 0.623196 3.8847 0.864034 3.8847 1.15975V8.60743C3.8847 8.90314 3.64292 9.14398 3.34604 9.14398H0.70174C0.404868 9.14398 0.163086 8.90314 0.163086 8.60743V1.15975C0.163086 0.864034 0.404868 0.623196 0.70174 0.623196Z" fill="white" fill-opacity="0.6"/>
</svg>
