<svg width="36" height="25" viewBox="0 0 36 25" fill="none" xmlns="http://www.w3.org/2000/svg">
<path d="M34.3893 11.1111H1.61155C0.844462 11.1111 0.222656 11.7329 0.222656 12.5C0.222656 13.2671 0.844462 13.8889 1.61155 13.8889H34.3893C35.1564 13.8889 35.7782 13.2671 35.7782 12.5C35.7782 11.7329 35.1564 11.1111 34.3893 11.1111ZM34.3893 0H1.61155C0.844462 0 0.222656 0.621806 0.222656 1.38889C0.222656 2.15597 0.844462 2.77778 1.61155 2.77778H34.3893C35.1564 2.77778 35.7782 2.15597 35.7782 1.38889C35.7782 0.621806 35.1564 0 34.3893 0ZM34.3893 22.2222H1.61155C0.844462 22.2222 0.222656 22.844 0.222656 23.6111C0.222656 24.3782 0.844462 25 1.61155 25H34.3893C35.1564 25 35.7782 24.3782 35.7782 23.6111C35.7782 22.844 35.1564 22.2222 34.3893 22.2222Z" fill="white"/>
</svg>
