<svg width="24" height="17" viewBox="0 0 24 17" fill="none" xmlns="http://www.w3.org/2000/svg">
<path d="M4.73841 8.11989C3.206 8.11989 1.95935 6.88459 1.95935 5.36667C1.95935 3.84859 3.206 2.61324 4.73841 2.61324C6.27068 2.61324 7.51709 3.8484 7.51709 5.36667C7.51709 6.88478 6.27068 8.11989 4.73841 8.11989ZM4.73841 3.38597C3.63196 3.38597 2.73207 4.27456 2.73207 5.36667C2.73207 6.45863 3.63196 7.34717 4.73841 7.34717C5.84452 7.34717 6.74436 6.45863 6.74436 5.36667C6.74436 4.27456 5.84452 3.38597 4.73841 3.38597ZM5.8564 15.743H1.00986C0.453011 15.743 0 15.2929 0 14.7395V13.4757C0 10.8885 2.12558 8.78352 4.73841 8.78352C5.76604 8.78352 6.74422 9.1042 7.56635 9.71079C7.6488 9.77167 7.7037 9.8628 7.71897 9.96414C7.73425 10.0655 7.70866 10.1687 7.64783 10.2512C7.58694 10.3336 7.49585 10.3885 7.39455 10.4038C7.29325 10.419 7.19003 10.3935 7.10755 10.3327C6.41914 9.82492 5.6 9.55625 4.73841 9.55625C2.55174 9.55625 0.772727 11.3147 0.772727 13.4757V14.7395C0.772727 14.8667 0.879122 14.9703 1.00986 14.9703H5.8566C6.06977 14.9703 6.24296 15.1433 6.24296 15.3566C6.24296 15.5698 6.06977 15.743 5.8564 15.743V15.743ZM22.9447 15.4506H18.0981C17.885 15.4506 17.7118 15.2776 17.7118 15.0642C17.7118 14.8511 17.885 14.6779 18.0981 14.6779H22.9449C23.0756 14.6779 23.182 14.5745 23.182 14.4474V13.1836C23.182 11.0222 21.403 9.26406 19.2163 9.26406C18.3031 9.26406 17.4115 9.57856 16.7057 10.1498C16.54 10.284 16.2969 10.2585 16.1624 10.0927C16.0282 9.92682 16.0535 9.68346 16.2197 9.54915C17.0624 8.86717 18.1266 8.49133 19.2163 8.49133C21.829 8.49133 23.9545 10.5961 23.9545 13.1836V14.4474C23.9545 15.0005 23.5016 15.4506 22.9447 15.4506ZM19.2161 7.92898C17.6839 7.92898 16.4375 6.69387 16.4375 5.17575C16.4375 3.65763 17.6839 2.42233 19.2161 2.42233C20.7485 2.42233 21.9952 3.65749 21.9952 5.17575C21.9952 6.69402 20.7484 7.92898 19.2161 7.92898ZM19.2161 3.19506C18.11 3.19506 17.2102 4.08365 17.2102 5.17575C17.2102 6.26786 18.11 7.15625 19.2161 7.15625C20.3226 7.15625 21.2225 6.26786 21.2225 5.17575C21.2225 4.08365 20.3224 3.19506 19.2161 3.19506Z" fill="white" fill-opacity="0.7"/>
<path d="M17.2218 17H6.73411C6.0374 17 5.4707 16.4375 5.4707 15.7458V13.9683C5.4707 10.416 8.38954 7.52598 11.9779 7.52598C15.5663 7.52598 18.4852 10.416 18.4852 13.9683V15.7458C18.4852 16.4374 17.9185 17 17.2218 17ZM11.9779 8.2989C8.81589 8.2989 6.24343 10.8423 6.24343 13.9685V15.746C6.24343 16.0114 6.46356 16.2275 6.73411 16.2275H17.2216C17.4921 16.2275 17.7123 16.0114 17.7123 15.746V13.9685C17.7124 10.8423 15.14 8.2989 11.9779 8.2989ZM11.8436 7.07451C9.87481 7.07451 8.27276 5.48776 8.27276 3.53706C8.27276 1.5866 9.87467 0 11.8437 0C13.8128 0 15.4147 1.58675 15.4147 3.53726C15.4147 5.48791 13.8126 7.07451 11.8437 7.07451H11.8436ZM11.8436 0.772727C10.3008 0.772727 9.04549 2.01295 9.04549 3.53726C9.04549 5.0618 10.3008 6.30198 11.8436 6.30198C13.3866 6.30198 14.6419 5.06175 14.6419 3.53726C14.6419 2.01295 13.3866 0.772727 11.8437 0.772727H11.8436Z" fill="white" fill-opacity="0.7"/>
</svg>
