<svg width="15" height="15" viewBox="0 0 15 15" fill="none" xmlns="http://www.w3.org/2000/svg">
<path d="M14.5313 7.03125H8.59375C8.335 7.03125 8.125 6.82125 8.125 6.5625C8.125 6.30375 8.335 6.09375 8.59375 6.09375H14.5313C14.79 6.09375 15 6.30375 15 6.5625C15 6.82125 14.79 7.03125 14.5313 7.03125Z" fill="#B8B8B8"/>
<path d="M12.1875 9.375C12.1259 9.37514 12.0649 9.36306 12.0081 9.33946C11.9512 9.31587 11.8996 9.28122 11.8562 9.23754C11.6731 9.05435 11.6731 8.75748 11.8562 8.57438L13.8688 6.56191L11.8562 4.54937C11.6731 4.36626 11.6731 4.06939 11.8562 3.88629C12.0394 3.70307 12.3363 3.70307 12.5194 3.88629L14.8631 6.23004C15.0462 6.41314 15.0462 6.71001 14.8631 6.89312L12.5194 9.23687C12.476 9.28073 12.4243 9.31553 12.3673 9.33924C12.3103 9.36296 12.2492 9.37511 12.1875 9.375ZM5.00004 15C4.86627 15 4.73936 14.9813 4.61253 14.9418L0.851221 13.6887C0.339404 13.51 0 13.0331 0 12.5V1.25004C0 0.560654 0.560654 0 1.25004 0C1.38369 0 1.51063 0.01875 1.63755 0.058125L5.39874 1.31127C5.91064 1.49001 6.24996 1.9669 6.24996 2.49996V13.75C6.24996 14.4393 5.68942 15 5.00004 15ZM1.25004 0.9375C1.07815 0.9375 0.9375 1.07812 0.9375 1.25004V12.5C0.9375 12.6331 1.02686 12.7568 1.15436 12.8012L4.89806 14.0488C4.92495 14.0575 4.95999 14.0625 5.00004 14.0625C5.17192 14.0625 5.31246 13.9218 5.31246 13.75V2.49996C5.31246 2.36686 5.22311 2.24314 5.09561 2.19876L1.3519 0.95124C1.32501 0.942539 1.28997 0.9375 1.25004 0.9375Z" fill="#B8B8B8"/>
<path d="M9.53117 5.00004C9.27242 5.00004 9.06242 4.79004 9.06242 4.53129V1.71879C9.06242 1.28813 8.71188 0.9375 8.28125 0.9375H1.25C0.99125 0.9375 0.78125 0.7275 0.78125 0.46875C0.78125 0.21 0.99125 0 1.25 0H8.28125C9.22938 0 9.99992 0.770654 9.99992 1.71879V4.53129C9.99992 4.79004 9.78992 5.00004 9.53117 5.00004ZM8.28125 13.125H5.78117C5.52242 13.125 5.31242 12.915 5.31242 12.6562C5.31242 12.3975 5.52242 12.1875 5.78117 12.1875H8.28125C8.71191 12.1875 9.06242 11.8368 9.06242 11.4062V8.59371C9.06242 8.33496 9.27242 8.12496 9.53117 8.12496C9.78992 8.12496 9.99992 8.33496 9.99992 8.59371V11.4062C9.99992 12.3543 9.22941 13.125 8.28125 13.125Z" fill="#B8B8B8"/>
</svg>
