<svg width="20" height="20" viewBox="0 0 20 20" fill="none" xmlns="http://www.w3.org/2000/svg">
<g clip-path="url(#clip0_367_339)">
<path d="M8.34973 5H6.67135C6.30057 5 6 5.35781 6 5.79918V14.5902C6 15.0316 6.30057 15.3894 6.67135 15.3894H8.34973C8.72051 15.3894 9.02108 15.0316 9.02108 14.5902V5.79918C9.02108 5.35781 8.72051 5 8.34973 5Z" fill="white"/>
<path d="M13.3292 5.00012H11.6508C11.2801 5.00012 10.9795 5.35793 10.9795 5.7993V14.5903C10.9795 15.0317 11.2801 15.3895 11.6508 15.3895H13.3292C13.7 15.3895 14.0006 15.0317 14.0006 14.5903V5.7993C14.0006 5.35793 13.7 5.00012 13.3292 5.00012Z" fill="white"/>
<circle cx="10" cy="10" r="9.5" stroke="white"/>
</g>
<defs>
<clipPath id="clip0_367_339">
<rect width="20" height="20" fill="white"/>
</clipPath>
</defs>
</svg>
