<svg width="70" height="70" viewBox="0 0 70 70" fill="none" xmlns="http://www.w3.org/2000/svg">
<circle cx="35" cy="35" r="34.5" stroke="white" stroke-opacity="0.7"/>
<path d="M42.8439 36.1976C37.3288 36.4239 37.3288 44.287 42.8439 44.5143C43.9461 44.5124 45.0025 44.0735 45.7816 43.2939C46.5606 42.5143 46.9988 41.4576 47 40.3555V20.6709C46.9988 20.5635 46.9722 20.458 46.9223 20.363C46.8724 20.2679 46.8007 20.1861 46.713 20.1242C46.6253 20.0622 46.5242 20.022 46.4179 20.0068C46.3117 19.9916 46.2033 20.0019 46.1018 20.0367L31.4185 25.3102C31.2874 25.3567 31.1738 25.4426 31.0934 25.5561C31.013 25.6696 30.9697 25.8052 30.9694 25.9443V42.5678C28.3591 40.1336 23.9875 42.0235 24 45.629C24.2282 51.145 32.0886 51.145 32.3167 45.629V32.0056L45.6527 27.2153V37.2943C44.8874 36.5889 43.8847 36.1974 42.8439 36.1976ZM42.8439 43.1669C42.0986 43.166 41.3842 42.8694 40.8573 42.3424C40.3304 41.8153 40.0341 41.1007 40.0334 40.3555C40.1879 36.626 45.5018 36.6269 45.6554 40.3555C45.6546 41.1009 45.3582 41.8156 44.8311 42.3427C44.304 42.8698 43.5893 43.1662 42.8439 43.1669ZM28.1615 48.4404C27.4161 48.4397 26.7014 48.1433 26.1743 47.6162C25.6472 47.0891 25.3508 46.3744 25.3501 45.629C25.5046 41.9004 30.8185 41.9013 30.9721 45.629C30.9713 46.3742 30.675 47.0888 30.1481 47.6159C29.6212 48.1429 28.9068 48.4395 28.1615 48.4404ZM32.3194 30.5738V26.4186L45.6527 21.6284V25.7836L32.3194 30.5738Z" fill="white" fill-opacity="0.7"/>
</svg>
