<svg width="16" height="16" viewBox="0 0 16 16" fill="none" xmlns="http://www.w3.org/2000/svg">
<path fill-rule="evenodd" clip-rule="evenodd" d="M8.77141 4.32291C8.6901 4.28228 8.59975 4.2631 8.50895 4.26721C8.41814 4.27131 8.32989 4.29855 8.25257 4.34634C8.17526 4.39414 8.11144 4.4609 8.06718 4.5403C8.02291 4.61969 7.99968 4.70908 7.99968 4.79998V8.44638C7.63425 8.27304 7.2224 8.22308 6.82613 8.30402C6.42985 8.38496 6.07058 8.59241 5.8024 8.89517C5.53421 9.19792 5.3716 9.57959 5.33906 9.98273C5.30652 10.3859 5.4058 10.7887 5.62195 11.1305C5.83811 11.4724 6.15945 11.7348 6.53761 11.8782C6.91577 12.0217 7.3303 12.0384 7.7188 11.926C8.1073 11.8135 8.44876 11.5779 8.69179 11.2546C8.93481 10.9313 9.06626 10.5378 9.06634 10.1333V5.66291L9.89461 6.07704C10.021 6.13897 10.1667 6.14844 10.3 6.10338C10.4334 6.05833 10.5435 5.96241 10.6064 5.83653C10.6693 5.71064 10.6799 5.56499 10.6359 5.43132C10.5919 5.29766 10.4968 5.1868 10.3714 5.12291L8.77141 4.32291ZM7.19968 9.33331C7.41185 9.33331 7.61533 9.4176 7.76536 9.56763C7.91539 9.71766 7.99968 9.92114 7.99968 10.1333C7.99968 10.3455 7.91539 10.549 7.76536 10.699C7.61533 10.849 7.41185 10.9333 7.19968 10.9333C6.9875 10.9333 6.78402 10.849 6.63399 10.699C6.48396 10.549 6.39968 10.3455 6.39968 10.1333C6.39968 9.92114 6.48396 9.71766 6.63399 9.56763C6.78402 9.4176 6.9875 9.33331 7.19968 9.33331Z" fill="#B8B8B8"/>
<path fill-rule="evenodd" clip-rule="evenodd" d="M8 0C3.5816 0 0 3.5816 0 8C0 12.4184 3.5816 16 8 16C12.4184 16 16 12.4184 16 8C16 3.5816 12.4184 0 8 0ZM1.06667 8C1.06667 4.17067 4.17067 1.06667 8 1.06667C11.8293 1.06667 14.9333 4.17067 14.9333 8C14.9333 11.8293 11.8293 14.9333 8 14.9333C4.17067 14.9333 1.06667 11.8293 1.06667 8Z" fill="#B8B8B8"/>
</svg>
