<svg width="22" height="18" viewBox="0 0 22 18" fill="none" xmlns="http://www.w3.org/2000/svg">
<path d="M4.78236 5.99265H2.51294C2.11168 5.99265 1.72686 6.15107 1.44313 6.43307C1.1594 6.71507 1 7.09755 1 7.49636V10.5038C1 10.9026 1.1594 11.2851 1.44313 11.5671C1.72686 11.8491 2.11168 12.0075 2.51294 12.0075H4.78236V5.99265Z" stroke="white" stroke-width="1.5" stroke-linecap="round" stroke-linejoin="round"/>
<path d="M4.78223 12.0074L10.6978 16.2329C10.917 16.3836 11.1724 16.4741 11.438 16.4952C11.7037 16.5163 11.9703 16.4673 12.2108 16.3532C12.4716 16.2367 12.6939 16.0492 12.8519 15.8123C13.0098 15.5755 13.0971 15.299 13.1034 15.0149V2.98515C13.1099 2.71511 13.043 2.44833 12.9099 2.21283C12.7768 1.97734 12.5823 1.78182 12.3469 1.64684C12.1064 1.53267 11.8399 1.48367 11.5742 1.50479C11.3085 1.52591 11.0532 1.61642 10.834 1.76714L4.78223 5.99257" stroke="white" stroke-width="1.5" stroke-linecap="round" stroke-linejoin="round"/>
<path d="M19.1553 4.48895C20.2072 5.75294 20.7467 7.36159 20.6682 9.00009C20.6455 10.8572 20.1231 12.6744 19.1553 14.2631" stroke="white" stroke-width="1.5" stroke-linecap="round" stroke-linejoin="round"/>
<path d="M16.1299 6.74423C16.6558 7.37623 16.9256 8.18055 16.8864 8.9998C16.9256 9.81905 16.6558 10.6234 16.1299 11.2554" stroke="white" stroke-width="1.5" stroke-linecap="round" stroke-linejoin="round"/>
</svg>
