<svg width="70" height="70" viewBox="0 0 70 70" fill="none" xmlns="http://www.w3.org/2000/svg">
<circle cx="35" cy="35" r="34.5" stroke="white" stroke-opacity="0.7"/>
<path d="M24.6154 32.6923H22.3077C21.6957 32.6923 21.1087 32.9354 20.6759 33.3682C20.2431 33.801 20 34.3879 20 35V38.4615C20 39.0736 20.2431 39.6605 20.6759 40.0933C21.1087 40.5261 21.6957 40.7692 22.3077 40.7692H24.6154C24.9214 40.7692 25.2149 40.6476 25.4313 40.4313C25.6477 40.2149 25.7692 39.9214 25.7692 39.6154V33.8461C25.7692 33.5401 25.6477 33.2466 25.4313 33.0302C25.2149 32.8139 24.9214 32.6923 24.6154 32.6923ZM24.6154 32.6923L24.6154 30.3846C24.6154 27.6304 25.7095 24.9891 27.657 23.0416C29.6045 21.0941 32.2458 20 35 20C37.7542 20 40.3956 21.0941 42.343 23.0416C44.2905 24.9891 45.3846 27.6304 45.3846 30.3846L45.3846 32.6923M45.3846 40.7692H47.6923C48.3043 40.7692 48.8913 40.5261 49.3241 40.0933C49.7569 39.6605 50 39.0736 50 38.4615V35C50 34.3879 49.7569 33.801 49.3241 33.3682C48.8913 32.9354 48.3043 32.6923 47.6923 32.6923H45.3846M45.3846 40.7692C45.0786 40.7692 44.7851 40.6476 44.5687 40.4313C44.3523 40.2149 44.2308 39.9214 44.2308 39.6154V33.8461C44.2308 33.5401 44.3523 33.2466 44.5687 33.0302C44.7851 32.8139 45.0786 32.6923 45.3846 32.6923M45.3846 40.7692L45.3846 42.5C45.3846 43.7241 44.8984 44.898 44.0328 45.7636C43.1673 46.6291 41.9933 47.1154 40.7692 47.1154M40.7692 47.1154C40.7692 46.3503 40.4653 45.6166 39.9244 45.0757C39.3834 44.5347 38.6497 44.2308 37.8846 44.2308H34.4231C33.658 44.2308 32.9243 44.5347 32.3833 45.0757C31.8424 45.6166 31.5385 46.3503 31.5385 47.1154C31.5385 47.8804 31.8424 48.6141 32.3833 49.1551C32.9243 49.6961 33.658 50 34.4231 50H37.8846C38.6497 50 39.3834 49.6961 39.9244 49.1551C40.4653 48.6141 40.7692 47.8804 40.7692 47.1154ZM31.5385 28.0769V31.5385M38.4615 28.0769V31.5385M31.5385 36.1538C31.5385 39.2231 38.4615 39.2231 38.4615 36.1538" stroke="white" stroke-opacity="0.7" stroke-width="1.4" stroke-linecap="round" stroke-linejoin="round"/>
</svg>
