<svg width="12" height="12" viewBox="0 0 12 12" fill="none" xmlns="http://www.w3.org/2000/svg">
<path d="M10.3792 0C10.1299 0 9.92791 0.191877 9.92791 0.428579V1.99413C7.60459 -0.142031 3.89778 -0.0850277 1.64848 2.1214C0.58844 3.16125 -0.00292889 4.55264 1.09083e-05 5.99997C1.09083e-05 6.23668 0.202051 6.42855 0.451288 6.42855C0.700526 6.42855 0.90254 6.23668 0.90254 5.99997C0.903095 3.39636 3.12595 1.28611 5.86749 1.28664C6.55612 1.28677 7.23718 1.42297 7.86739 1.68658C8.49759 1.95018 9.06315 2.33544 9.52811 2.81784L7.529 3.45083C7.29224 3.52563 7.16413 3.76854 7.2429 3.99339C7.32167 4.21824 7.57744 4.3399 7.8142 4.26509L10.5218 3.40796C10.6119 3.37945 10.6903 3.32467 10.7457 3.25142C10.8011 3.17817 10.8308 3.09018 10.8305 2.99997V0.428553C10.8305 0.191877 10.6284 0 10.3792 0ZM11.2817 5.57142C11.0325 5.57142 10.8304 5.7633 10.8304 6C10.8299 8.60361 8.60702 10.7139 5.86548 10.7133C5.17686 10.7132 4.49579 10.577 3.86559 10.3134C3.23538 10.0498 2.66982 9.66454 2.20486 9.18213L4.20398 8.54915C4.44073 8.47434 4.56884 8.23144 4.49007 8.00659C4.4113 7.78174 4.15554 7.66007 3.91878 7.73488L1.21117 8.59201C1.12106 8.62052 1.04271 8.6753 0.98729 8.74856C0.931868 8.82181 0.902192 8.9098 0.902487 9V11.5714C0.902487 11.8081 1.10453 12 1.35376 12C1.603 12 1.80504 11.8081 1.80504 11.5714V10.0058C4.12835 12.142 7.83519 12.085 10.0845 9.87858C11.1445 8.83873 11.7359 7.44733 11.7329 6C11.733 5.7633 11.531 5.57142 11.2817 5.57142Z" fill="white"/>
</svg>
