<svg width="70" height="70" viewBox="0 0 70 70" fill="none" xmlns="http://www.w3.org/2000/svg">
<circle cx="35" cy="35" r="34.5" stroke="white" stroke-opacity="0.7"/>
<path d="M25.3299 34.8471C23.2828 34.8471 21.6174 33.1969 21.6174 31.1692C21.6174 29.1412 23.2828 27.491 25.3299 27.491C27.3768 27.491 29.0418 29.141 29.0418 31.1692C29.0418 33.1972 27.3768 34.8471 25.3299 34.8471ZM25.3299 28.5232C23.8518 28.5232 22.6497 29.7103 22.6497 31.1692C22.6497 32.6279 23.8518 33.8148 25.3299 33.8148C26.8075 33.8148 28.0095 32.6279 28.0095 31.1692C28.0095 29.7103 26.8075 28.5232 25.3299 28.5232ZM26.8234 45.0306H20.349C19.6052 45.0306 19 44.4293 19 43.69V42.0017C19 38.5456 21.8395 35.7336 25.3299 35.7336C26.7026 35.7336 28.0094 36.162 29.1076 36.9723C29.2178 37.0536 29.2911 37.1754 29.3115 37.3108C29.3319 37.4461 29.2977 37.5841 29.2165 37.6943C29.1351 37.8043 29.0134 37.8776 28.8781 37.898C28.7428 37.9184 28.6049 37.8843 28.4947 37.8032C27.5751 37.1248 26.4808 36.7659 25.3299 36.7659C22.4088 36.7659 20.0323 39.1149 20.0323 42.0017V43.69C20.0323 43.8599 20.1744 43.9983 20.349 43.9983H26.8236C27.1084 43.9983 27.3397 44.2293 27.3397 44.5144C27.3397 44.7992 27.1084 45.0305 26.8234 45.0305V45.0306ZM49.651 44.6399H43.1766C42.8919 44.6399 42.6605 44.4088 42.6605 44.1238C42.6605 43.839 42.8919 43.6077 43.1766 43.6077H49.6512C49.8259 43.6077 49.968 43.4696 49.968 43.2997V41.6115C49.968 38.7241 47.5915 36.3755 44.6704 36.3755C43.4504 36.3755 42.2594 36.7957 41.3165 37.5588C41.0952 37.738 40.7704 37.7039 40.5907 37.4824C40.4115 37.2609 40.4453 36.9358 40.6674 36.7564C41.7931 35.8453 43.2147 35.3433 44.6704 35.3433C48.1605 35.3433 51 38.155 51 41.6115V43.2997C51 44.0386 50.3949 44.6399 49.651 44.6399ZM44.6701 34.5921C42.6232 34.5921 40.9582 32.9421 40.9582 30.9141C40.9582 28.8861 42.6232 27.2359 44.6701 27.2359C46.7172 27.2359 48.3826 28.8859 48.3826 30.9141C48.3826 32.9423 46.717 34.5921 44.6701 34.5921ZM44.6701 28.2682C43.1925 28.2682 41.9905 29.4552 41.9905 30.9141C41.9905 32.373 43.1925 33.5598 44.6701 33.5598C46.1482 33.5598 47.3503 32.373 47.3503 30.9141C47.3503 29.4552 46.1479 28.2682 44.6701 28.2682Z" fill="white" fill-opacity="0.7"/>
<path d="M42.0044 46.7097H27.9944C27.0637 46.7097 26.3066 45.9582 26.3066 45.0343V42.6598C26.3066 37.9143 30.2058 34.0537 34.9994 34.0537C39.793 34.0537 43.6922 37.9143 43.6922 42.6598V45.0343C43.6922 45.9581 42.9352 46.7097 42.0044 46.7097ZM34.9994 35.0862C30.7754 35.0862 27.3389 38.4839 27.3389 42.66V45.0345C27.3389 45.3891 27.633 45.6777 27.9944 45.6777H42.0042C42.3656 45.6777 42.6597 45.3891 42.6597 45.0345V42.66C42.6599 38.4839 39.2235 35.0862 34.9994 35.0862ZM34.82 33.4506C32.1899 33.4506 30.0498 31.3309 30.0498 28.725C30.0498 26.1195 32.1897 24 34.8201 24C37.4506 24 39.5904 26.1197 39.5904 28.7253C39.5904 31.3311 37.4503 33.4506 34.8201 33.4506H34.82ZM34.82 25.0323C32.759 25.0323 31.0821 26.689 31.0821 28.7253C31.0821 30.7619 32.759 32.4186 34.82 32.4186C36.8812 32.4186 38.5581 30.7618 38.5581 28.7253C38.5581 26.689 36.8812 25.0323 34.8201 25.0323H34.82Z" fill="white" fill-opacity="0.7"/>
</svg>
