<svg width="30" height="30" viewBox="0 0 30 30" fill="none" xmlns="http://www.w3.org/2000/svg">
<path d="M19.1503 10.8547L19.1207 10.8251C18.1397 9.84925 16.8432 9.25458 15.4636 9.1476C14.084 9.04062 12.7114 9.42832 11.5916 10.2413C10.4718 11.0542 9.67804 12.2393 9.35247 13.5842C9.02691 14.9291 9.19081 16.3459 9.81481 17.581L10.0714 18.0863L9.59179 20.4113V20.4409L11.8951 19.8942L12.4201 20.1547C13.5128 20.6971 14.7481 20.8829 15.9519 20.686C17.1558 20.4892 18.2676 19.9195 19.1306 19.0573C20.2141 17.9686 20.824 16.4961 20.8277 14.9601C20.8314 13.424 20.2286 11.9487 19.1503 10.8547ZM18.9174 17.3679C18.6352 17.8119 18.1872 18.3547 17.6286 18.4909C16.6418 18.7297 15.1398 18.4909 13.2589 16.7521L13.2352 16.7304C11.599 15.2027 11.1648 13.9297 11.2615 12.9211C11.3188 12.3488 11.7964 11.8317 12.199 11.4922C12.2629 11.4378 12.3386 11.3992 12.4202 11.3795C12.5017 11.3598 12.5867 11.3595 12.6683 11.3787C12.75 11.3979 12.826 11.4361 12.8902 11.4901C12.9543 11.5441 13.0049 11.6124 13.0378 11.6896L13.6438 13.0711C13.6833 13.1593 13.6981 13.2566 13.6867 13.3525C13.6752 13.4485 13.6379 13.5395 13.5786 13.6159L13.2707 14.0106C13.2067 14.0926 13.1686 14.1917 13.1612 14.2954C13.1538 14.3991 13.1775 14.5027 13.2293 14.5929C13.5219 15.0232 13.8718 15.4117 14.2694 15.7475C14.6963 16.1605 15.1818 16.5084 15.7102 16.7797C15.8064 16.8188 15.9122 16.8282 16.0138 16.8067C16.1154 16.7853 16.2084 16.7339 16.2806 16.6593L16.6339 16.3021C16.6998 16.2265 16.7856 16.1709 16.8816 16.1416C16.9775 16.1123 17.0797 16.1104 17.1767 16.1363L18.6174 16.5507C18.6975 16.5742 18.7711 16.6159 18.8323 16.6726C18.8935 16.7294 18.9407 16.7995 18.9702 16.8776C18.9997 16.9557 19.0106 17.0395 19.0021 17.1226C18.9937 17.2056 18.966 17.2855 18.9214 17.356L18.9174 17.3679Z" fill="white" fill-opacity="0.4"/>
<path d="M15 0C12.0333 0 9.13319 0.879734 6.66645 2.52796C4.19971 4.17618 2.27713 6.51886 1.14181 9.25975C0.00649923 12.0006 -0.290551 15.0166 0.288227 17.9263C0.867006 20.8361 2.29562 23.5088 4.3934 25.6066C6.49119 27.7044 9.16393 29.133 12.0736 29.7118C14.9834 30.2906 17.9994 29.9935 20.7402 28.8582C23.4811 27.7229 25.8238 25.8003 27.472 23.3335C29.1203 20.8668 30 17.9667 30 15C30 11.0217 28.4196 7.20644 25.6066 4.3934C22.7936 1.58035 18.9782 0 15 0ZM22.4349 15.1757C22.3943 16.4214 22.0416 17.637 21.409 18.711C20.7765 19.785 19.8843 20.6829 18.8144 21.3223C17.7446 21.9618 16.5312 22.3223 15.2857 22.3708C14.0403 22.4193 12.8026 22.1543 11.6862 21.6L7.93619 22.4921C7.87949 22.5051 7.8202 22.5008 7.766 22.4796C7.7118 22.4585 7.66519 22.4216 7.63224 22.3737C7.60971 22.3416 7.59406 22.3053 7.58624 22.2669C7.57843 22.2285 7.57864 22.1889 7.58685 22.1507L8.37632 18.3178C7.86027 17.3066 7.58243 16.1908 7.56407 15.0557C7.54571 13.9206 7.78732 12.7964 8.27039 11.769C8.75347 10.7417 9.46521 9.83856 10.3511 9.1287C11.237 8.41883 12.2736 7.92109 13.3815 7.67357C14.4895 7.42606 15.6393 7.43533 16.7431 7.70068C17.8469 7.96603 18.8753 8.48043 19.7497 9.20449C20.624 9.92855 21.3211 10.8431 21.7876 11.8781C22.254 12.913 22.4775 14.041 22.4408 15.1757H22.4349Z" fill="white" fill-opacity="0.4"/>
</svg>
